<?xml version="1.0" encoding="utf-8"?>
<!-- Generator: Adobe Illustrator 27.7.0, SVG Export Plug-In . SVG Version: 6.00 Build 0)  -->
<svg version="1.1" id="Capa_1" xmlns="http://www.w3.org/2000/svg" xmlns:xlink="http://www.w3.org/1999/xlink" x="0px" y="0px"
	 viewBox="0 0 40 50" style="enable-background:new 0 0 40 50;" xml:space="preserve">
<style type="text/css">
	.st0{fill-rule:evenodd;clip-rule:evenodd;}
</style>
<path class="st0" d="M20,12.2c-3.4,0-6.1,2.7-6.1,6.1v0.6h-0.6h-1.7c-1.5,0-2.8,1.2-2.8,2.8V35c0,1.5,1.2,2.8,2.8,2.8h16.7
	c1.5,0,2.8-1.2,2.8-2.8V21.7c0-1.5-1.2-2.8-2.8-2.8h-1.7H26v-0.6C26.1,14.9,23.4,12.2,20,12.2z M16.1,18.3c0-2.2,1.8-3.9,3.9-3.9
	s3.9,1.8,3.9,3.9v0.6h-0.6h-6.7H16v-0.6H16.1z M28.4,21.1H29v0.6V35v0.6h-0.6H11.6H11V35V21.7v-0.6h0.6H28.4z"/>
</svg>
