<?xml version="1.0" encoding="utf-8"?>
<!-- Generator: Adobe Illustrator 27.7.0, SVG Export Plug-In . SVG Version: 6.00 Build 0)  -->
<svg version="1.1" id="Capa_1" xmlns="http://www.w3.org/2000/svg" xmlns:xlink="http://www.w3.org/1999/xlink" x="0px" y="0px"
	 viewBox="0 0 40 50" style="enable-background:new 0 0 40 50;" xml:space="preserve">
<style type="text/css">
	.st0{fill-rule:evenodd;clip-rule:evenodd;stroke:#000000;stroke-width:0.25;stroke-miterlimit:10;}
</style>
<path class="st0" d="M10,37.8c0.6,0,1.1-0.5,1.1-1.1c0-4.9,4-8.9,8.9-8.9s8.9,4,8.9,8.9c0,0.6,0.5,1.1,1.1,1.1s1.1-0.5,1.1-1.1
	c0-4.1-2.3-7.9-6-9.8l-0.7-0.4L25,26c1.7-1.5,2.7-3.6,2.7-5.9c0-4.3-3.5-7.8-7.8-7.8s-7.8,3.5-7.8,7.8c0,2.3,1,4.4,2.7,5.9l0.6,0.5
	l-0.7,0.4c-3.7,1.9-6,5.7-6,9.8C8.9,37.3,9.4,37.8,10,37.8z M14.4,20c0-3.1,2.5-5.6,5.6-5.6s5.6,2.5,5.6,5.6s-2.5,5.6-5.6,5.6
	S14.4,23.1,14.4,20z"/>
</svg>
